<svg width="396.5" height="107" viewBox="0 0 793 214" fill="none" xmlns="http://www.w3.org/2000/svg">
<path d="M214.9 135V91.6H204.7V85H214.9V67.1H222.4V85H233.9V91.6H222.4V135H214.9ZM247.317 154.8L256.417 134.3L236.017 85H244.317L260.417 126L276.817 85H285.017L255.417 154.8H247.317ZM291.824 154.8V85H299.324V93C301.191 90.2667 303.591 88.1333 306.524 86.6C309.524 85 313.091 84.2 317.224 84.2C322.091 84.2 326.324 85.3667 329.924 87.7C333.591 89.9667 336.424 93.0667 338.424 97C340.424 100.867 341.424 105.2 341.424 110C341.424 114.733 340.424 119.067 338.424 123C336.424 126.933 333.591 130.067 329.924 132.4C326.324 134.667 322.091 135.8 317.224 135.8C313.091 135.8 309.524 135 306.524 133.4C303.591 131.733 301.191 129.567 299.324 126.9V154.8H291.824ZM316.224 129C319.958 129 323.124 128.133 325.724 126.4C328.391 124.667 330.424 122.367 331.824 119.5C333.224 116.567 333.924 113.4 333.924 110C333.924 106.533 333.224 103.367 331.824 100.5C330.424 97.6333 328.391 95.3333 325.724 93.6C323.124 91.8667 319.958 91 316.224 91C312.558 91 309.424 91.8667 306.824 93.6C304.224 95.3333 302.258 97.6333 300.924 100.5C299.591 103.367 298.924 106.533 298.924 110C298.924 113.4 299.591 116.567 300.924 119.5C302.258 122.367 304.224 124.667 306.824 126.4C309.424 128.133 312.558 129 316.224 129ZM373.497 135.8C368.43 135.8 363.997 134.667 360.197 132.4C356.397 130.067 353.43 126.933 351.297 123C349.23 119.067 348.197 114.733 348.197 110C348.197 105.2 349.197 100.867 351.197 97C353.197 93.0667 356.064 89.9667 359.797 87.7C363.53 85.3667 367.93 84.2 372.997 84.2C378.13 84.2 382.53 85.3667 386.197 87.7C389.93 89.9667 392.797 93.0667 394.797 97C396.797 100.867 397.797 105.2 397.797 110V113H355.897C356.297 115.933 357.23 118.633 358.697 121.1C360.23 123.5 362.264 125.433 364.797 126.9C367.33 128.3 370.264 129 373.597 129C377.13 129 380.097 128.233 382.497 126.7C384.897 125.1 386.764 123.067 388.097 120.6H396.297C394.564 125.067 391.797 128.733 387.997 131.6C384.264 134.4 379.43 135.8 373.497 135.8ZM355.997 106H389.997C389.33 101.733 387.53 98.1667 384.597 95.3C381.664 92.4333 377.797 91 372.997 91C368.197 91 364.33 92.4333 361.397 95.3C358.53 98.1667 356.73 101.733 355.997 106ZM428.061 135.8C423.194 135.8 418.928 134.667 415.261 132.4C411.661 130.067 408.861 126.933 406.861 123C404.861 119.067 403.861 114.733 403.861 110C403.861 105.2 404.861 100.867 406.861 97C408.861 93.0667 411.661 89.9667 415.261 87.7C418.928 85.3667 423.194 84.2 428.061 84.2C432.194 84.2 435.728 85 438.661 86.6C441.661 88.2 444.094 90.3667 445.961 93.1V65H453.461V135H445.961V127C444.094 129.667 441.661 131.8 438.661 133.4C435.728 135 432.194 135.8 428.061 135.8ZM429.061 129C432.794 129 435.928 128.133 438.461 126.4C441.061 124.667 443.028 122.367 444.361 119.5C445.694 116.567 446.361 113.4 446.361 110C446.361 106.533 445.694 103.367 444.361 100.5C443.028 97.6333 441.061 95.3333 438.461 93.6C435.928 91.8667 432.794 91 429.061 91C425.394 91 422.228 91.8667 419.561 93.6C416.894 95.3333 414.861 97.6333 413.461 100.5C412.061 103.367 411.361 106.533 411.361 110C411.361 113.4 412.061 116.567 413.461 119.5C414.861 122.367 416.894 124.667 419.561 126.4C422.228 128.133 425.394 129 429.061 129ZM513.123 135.8C508.989 135.8 505.423 135 502.423 133.4C499.489 131.8 497.089 129.667 495.223 127V135H487.723V65H495.223V93.1C497.089 90.3667 499.489 88.2 502.423 86.6C505.423 85 508.989 84.2 513.123 84.2C517.989 84.2 522.223 85.3667 525.823 87.7C529.489 89.9667 532.323 93.0667 534.323 97C536.323 100.867 537.323 105.2 537.323 110C537.323 114.733 536.323 119.067 534.323 123C532.323 126.933 529.489 130.067 525.823 132.4C522.223 134.667 517.989 135.8 513.123 135.8ZM512.123 129C515.856 129 519.023 128.133 521.623 126.4C524.289 124.667 526.323 122.367 527.723 119.5C529.123 116.567 529.823 113.4 529.823 110C529.823 106.533 529.123 103.367 527.723 100.5C526.323 97.6333 524.289 95.3333 521.623 93.6C519.023 91.8667 515.856 91 512.123 91C508.456 91 505.323 91.8667 502.723 93.6C500.123 95.3333 498.156 97.6333 496.823 100.5C495.489 103.367 494.823 106.533 494.823 110C494.823 113.4 495.489 116.567 496.823 119.5C498.156 122.367 500.123 124.667 502.723 126.4C505.323 128.133 508.456 129 512.123 129ZM546.895 76.6V66.8H554.995V76.6H546.895ZM547.195 135V85H554.695V135H547.195ZM567.703 135V85H575.203V92.8C577.003 90.4 579.203 88.3667 581.803 86.7C584.403 85.0333 587.736 84.2 591.803 84.2C595.27 84.2 598.503 85.0333 601.503 86.7C604.57 88.3 607.036 90.7333 608.903 94C610.836 97.2 611.803 101.167 611.803 105.9V135H604.303V106.1C604.303 101.567 603.003 97.9333 600.403 95.2C597.803 92.4 594.436 91 590.303 91C587.503 91 584.97 91.6333 582.703 92.9C580.436 94.1667 578.603 95.9667 577.203 98.3C575.87 100.567 575.203 103.2 575.203 106.2V135H567.703ZM645.444 135.8C640.577 135.8 636.31 134.667 632.644 132.4C629.044 130.067 626.244 126.933 624.244 123C622.244 119.067 621.244 114.733 621.244 110C621.244 105.2 622.244 100.867 624.244 97C626.244 93.0667 629.044 89.9667 632.644 87.7C636.31 85.3667 640.577 84.2 645.444 84.2C649.577 84.2 653.11 85 656.044 86.6C659.044 88.2 661.477 90.3667 663.344 93.1V85H670.844V135H663.344V127C661.477 129.667 659.044 131.8 656.044 133.4C653.11 135 649.577 135.8 645.444 135.8ZM646.444 129C650.177 129 653.31 128.133 655.844 126.4C658.444 124.667 660.41 122.367 661.744 119.5C663.077 116.567 663.744 113.4 663.744 110C663.744 106.533 663.077 103.367 661.744 100.5C660.41 97.6333 658.444 95.3333 655.844 93.6C653.31 91.8667 650.177 91 646.444 91C642.777 91 639.61 91.8667 636.944 93.6C634.277 95.3333 632.244 97.6333 630.844 100.5C629.444 103.367 628.744 106.533 628.744 110C628.744 113.4 629.444 116.567 630.844 119.5C632.244 122.367 634.277 124.667 636.944 126.4C639.61 128.133 642.777 129 646.444 129ZM683.816 135V85H691.316V97.3C691.583 96.4333 692.083 95.3 692.816 93.9C693.616 92.4333 694.75 90.9667 696.216 89.5C697.683 88.0333 699.516 86.8 701.716 85.8C703.983 84.7333 706.65 84.2 709.716 84.2H710.216V91.7H709.316C705.583 91.7 702.35 92.7333 699.616 94.8C696.95 96.8 694.883 99.4333 693.416 102.7C692.016 105.9 691.316 109.333 691.316 113V135H683.816ZM723.489 154.8L732.589 134.3L712.189 85H720.489L736.589 126L752.989 85H761.189L731.589 154.8H723.489Z" fill="white"/>
<path fill-rule="evenodd" clip-rule="evenodd" d="M84 86H116.69V93.6331H103.981V123H96.3155V93.6331H84V86ZM131.653 95.8719C131.414 96.2954 131.156 97.0677 131.156 98.498C131.156 99.624 131.396 100.029 131.461 100.123C131.51 100.193 131.632 100.35 132.122 100.516C133.417 100.952 135.435 100.909 138.544 100.746C138.67 100.739 138.798 100.732 138.929 100.725C141.493 100.587 144.967 100.401 147.8 101.332C149.445 101.873 151.115 102.852 152.326 104.577C153.523 106.281 154 108.325 154 110.508C154 115.784 150.843 119.06 147.218 120.788C143.801 122.418 139.73 122.902 136.527 122.853C136.322 122.85 136.527 122.853 136.322 122.85C136.219 122.847 136.083 122.842 135.917 122.832C135.587 122.814 135.136 122.777 134.601 122.706C133.551 122.566 132.085 122.279 130.564 121.671C129.05 121.065 127.307 120.07 125.925 118.412C124.488 116.688 123.625 114.459 123.625 111.78H131.29C131.29 112.73 131.561 113.222 131.824 113.538C132.143 113.921 132.667 114.286 133.421 114.588C134.167 114.886 134.967 115.053 135.618 115.14C135.934 115.182 136.19 115.202 136.356 115.212C136.439 115.217 136.497 115.219 136.527 115.219C136.535 115.22 136.54 115.22 136.544 115.22C139.242 115.218 141.985 114.821 143.907 113.904C145.625 113.085 146.335 112.096 146.335 110.508C146.335 109.407 146.098 109.027 146.045 108.952C146.008 108.898 145.893 108.744 145.397 108.581C144.091 108.151 142.066 108.204 138.948 108.368C138.839 108.374 138.728 108.38 138.615 108.386C136.037 108.523 132.528 108.711 129.664 107.745C128.013 107.189 126.351 106.19 125.15 104.454C123.965 102.742 123.491 100.693 123.491 98.498C123.491 96.2023 123.899 94.0265 124.976 92.1235C126.082 90.1703 127.715 88.8189 129.613 87.9177C133.113 86.256 137.852 86 142.881 86C142.896 86.0015 142.93 86.0003 142.957 86.0006C142.99 86.0011 143.03 86.0019 143.077 86.0033C143.171 86.006 143.292 86.0111 143.438 86.0203C143.728 86.0387 144.12 86.0741 144.583 86.1425C145.488 86.2764 146.761 86.5514 148.085 87.139C149.412 87.7284 150.92 88.6903 152.098 90.2593C153.311 91.8747 154 93.9027 154 96.2843H146.335C146.335 95.432 146.113 95.0346 145.96 94.8309C145.772 94.5808 145.458 94.3301 144.964 94.111C144.467 93.8901 143.917 93.7609 143.456 93.6927C143.236 93.66 143.059 93.6449 142.951 93.638C142.901 93.6349 142.868 93.6336 142.853 93.6331C137.659 93.6344 134.627 93.9932 132.912 94.8078C132.201 95.1455 131.865 95.4987 131.653 95.8719ZM142.847 93.6329C142.842 93.6328 142.843 93.6328 142.849 93.633L142.847 93.6329Z" fill="white"/>
<path fill-rule="evenodd" clip-rule="evenodd" d="M104.277 143.615H96.7229C95.0516 143.615 93.7091 144.201 92.8611 144.934C92.0278 145.655 91.7647 146.401 91.7647 147V158C91.7647 158.599 92.0278 159.345 92.8611 160.066C93.7091 160.799 95.0516 161.385 96.7229 161.385H104.277C105.948 161.385 107.291 160.799 108.139 160.066C108.972 159.345 109.235 158.599 109.235 158V147C109.235 146.401 108.972 145.655 108.139 144.934C107.291 144.201 105.948 143.615 104.277 143.615ZM96.7229 136C89.6962 136 84 140.925 84 147V158C84 164.075 89.6962 169 96.7229 169H104.277C111.304 169 117 164.075 117 158V147C117 140.925 111.304 136 104.277 136H96.7229Z" fill="white"/>
<path fill-rule="evenodd" clip-rule="evenodd" d="M126 138.538L152 136V169H144.39V144.25L126 146.154V138.538Z" fill="white"/>
<path fill-rule="evenodd" clip-rule="evenodd" d="M104.277 46.6154H96.7229C95.0516 46.6154 93.7091 47.2012 92.8611 47.9344C92.0278 48.6548 91.7647 49.4007 91.7647 50V61C91.7647 61.5993 92.0278 62.3452 92.8611 63.0656C93.7091 63.7988 95.0516 64.3846 96.7229 64.3846H104.277C105.948 64.3846 107.291 63.7988 108.139 63.0656C108.972 62.3452 109.235 61.5993 109.235 61V50C109.235 49.4007 108.972 48.6548 108.139 47.9344C107.291 47.2012 105.948 46.6154 104.277 46.6154ZM96.7229 39C89.6962 39 84 43.9249 84 50V61C84 67.0751 89.6962 72 96.7229 72H104.277C111.304 72 117 67.0751 117 61V50C117 43.9249 111.304 39 104.277 39H96.7229Z" fill="url(#paint0_linear_16_39)"/>
<path fill-rule="evenodd" clip-rule="evenodd" d="M60.2771 94.6154H52.7229C51.0516 94.6154 49.7091 95.2012 48.8611 95.9344C48.0278 96.6548 47.7647 97.4007 47.7647 98V109C47.7647 109.599 48.0278 110.345 48.8611 111.066C49.7091 111.799 51.0516 112.385 52.7229 112.385H60.2771C61.9484 112.385 63.2909 111.799 64.1389 111.066C64.9722 110.345 65.2353 109.599 65.2353 109V98C65.2353 97.4007 64.9722 96.6548 64.1389 95.9344C63.2909 95.2012 61.9484 94.6154 60.2771 94.6154ZM52.7229 87C45.6962 87 40 91.9249 40 98V109C40 115.075 45.6962 120 52.7229 120H60.2771C67.3038 120 73 115.075 73 109V98C73 91.9249 67.3038 87 60.2771 87H52.7229Z" fill="url(#paint1_linear_16_39)"/>
<path fill-rule="evenodd" clip-rule="evenodd" d="M126 41.5385L152 39V72H144.39V47.25L126 49.1538V41.5385Z" fill="url(#paint2_linear_16_39)"/>
<path fill-rule="evenodd" clip-rule="evenodd" d="M40 138.538L66 136V169H58.3902V144.25L40 146.154V138.538Z" fill="url(#paint3_linear_16_39)"/>
<path fill-rule="evenodd" clip-rule="evenodd" d="M40 41.5385L66 39V72H58.3902V47.25L40 49.1538V41.5385Z" fill="url(#paint4_linear_16_39)"/>
<rect x="229" y="85" width="13" height="6.6" fill="white"/>
<defs>
<linearGradient id="paint0_linear_16_39" x1="52.069" y1="39" x2="80.9758" y2="168.582" gradientUnits="userSpaceOnUse">
<stop stop-color="#81B4C0"/>
<stop offset="1" stop-color="#616EF3"/>
</linearGradient>
<linearGradient id="paint1_linear_16_39" x1="52.069" y1="39" x2="80.9758" y2="168.582" gradientUnits="userSpaceOnUse">
<stop stop-color="#81B4C0"/>
<stop offset="1" stop-color="#616EF3"/>
</linearGradient>
<linearGradient id="paint2_linear_16_39" x1="52.069" y1="39" x2="80.9758" y2="168.582" gradientUnits="userSpaceOnUse">
<stop stop-color="#81B4C0"/>
<stop offset="1" stop-color="#616EF3"/>
</linearGradient>
<linearGradient id="paint3_linear_16_39" x1="52.069" y1="39" x2="80.9758" y2="168.582" gradientUnits="userSpaceOnUse">
<stop stop-color="#81B4C0"/>
<stop offset="1" stop-color="#616EF3"/>
</linearGradient>
<linearGradient id="paint4_linear_16_39" x1="52.069" y1="39" x2="80.9758" y2="168.582" gradientUnits="userSpaceOnUse">
<stop stop-color="#81B4C0"/>
<stop offset="1" stop-color="#616EF3"/>
</linearGradient>
</defs>
</svg>
