<svg xmlns="http://www.w3.org/2000/svg" viewBox="0 0 128 128">
  <path d="M88.4389 26.6399C88.4334 26.6399 88.4344 26.6398 88.4413 26.64L88.4389 26.6399Z" fill="black" />
  <path
    d="M47.0325 77.4497H39.0758C37.3155 77.4497 35.9015 78.0779 35.0083 78.8641C34.1306 79.6365 33.8535 80.4363 33.8535 81.0789V92.8738C33.8535 93.5164 34.1306 94.3161 35.0083 95.0886C35.9015 95.8748 37.3155 96.503 39.0758 96.503H47.0325C48.7928 96.503 50.2068 95.8748 51.1 95.0886C51.9776 94.3161 52.2548 93.5164 52.2548 92.8738V81.0789C52.2548 80.4363 51.9776 79.6365 51.1 78.8641C50.2068 78.0779 48.7928 77.4497 47.0325 77.4497Z" />
  <path fill-rule="evenodd" clip-rule="evenodd"
    d="M117 6H10V121H117V6ZM25.6509 18.4745H60.5301V26.6401H46.9695V58.0562H38.7912V26.6401H25.6509V18.4745ZM76.4956 29.0352C76.2398 29.4882 75.9655 30.3144 75.9655 31.8446C75.9655 33.0491 76.2215 33.4827 76.2909 33.5832C76.3422 33.6576 76.4731 33.826 76.996 34.0028C78.3772 34.4697 80.5306 34.4238 83.8475 34.249L84.2552 34.2272L84.2581 34.2271C86.9939 34.0798 90.7009 33.8802 93.7234 34.8767C95.479 35.4554 97.2607 36.5028 98.5533 38.3479C99.8299 40.1703 100.339 42.357 100.339 44.6929C100.339 50.3366 96.9707 53.8408 93.1023 55.6904C89.4568 57.4333 85.1134 57.9515 81.6952 57.8989L81.477 57.8955C81.3674 57.8926 81.2217 57.8871 81.0451 57.877C80.6931 57.8568 80.211 57.8177 79.6405 57.7415C78.5209 57.5918 76.9557 57.2853 75.3328 56.6343C73.7182 55.9867 71.8578 54.9219 70.3841 53.1485C68.8509 51.3036 67.9299 48.9194 67.9299 46.0538H76.1083C76.1083 47.0693 76.3968 47.596 76.6779 47.9342C77.0184 48.3439 77.577 48.7345 78.3815 49.0572C79.1776 49.3765 80.0314 49.5552 80.726 49.648C81.0627 49.6931 81.3365 49.7146 81.5137 49.7247C81.6016 49.7298 81.6639 49.7319 81.696 49.7328L81.7139 49.7332C84.5927 49.7314 87.5187 49.3063 89.5701 48.3255C91.4032 47.4491 92.1605 46.3918 92.1605 44.6929C92.1605 43.5147 91.9079 43.1085 91.8515 43.028C91.8111 42.9704 91.6888 42.8052 91.1593 42.6306C89.7659 42.1712 87.6052 42.2281 84.2785 42.4034L83.9237 42.4223C81.1734 42.5695 77.4286 42.7701 74.3732 41.7372C72.6112 41.1415 70.8379 40.0734 69.5563 38.2162C68.2927 36.3852 67.7871 34.1923 67.7871 31.8446C67.7871 29.3887 68.2219 27.061 69.3713 25.0252C70.551 22.9357 72.2937 21.4901 74.3188 20.526C78.053 18.7484 83.1092 18.4745 88.4754 18.4745C88.4857 18.4755 88.504 18.4753 88.5234 18.4752L88.5345 18.4751C88.542 18.475 88.5494 18.475 88.5565 18.4751C88.5914 18.4756 88.6342 18.4765 88.6842 18.4779C88.7841 18.4809 88.9139 18.4863 89.0693 18.4962C89.3789 18.5159 89.7977 18.5537 90.291 18.6269C91.257 18.7702 92.6145 19.0643 94.0272 19.693C95.444 20.3234 97.0523 21.3525 98.3096 23.0309C99.6041 24.7591 100.339 26.9286 100.339 29.4763H92.1605C92.1605 28.5646 91.9235 28.1394 91.7603 27.9216C91.5599 27.6541 91.2246 27.3858 90.6979 27.1514C90.167 26.9152 89.5809 26.7769 89.0893 26.7039C88.8538 26.669 88.6652 26.6528 88.5496 26.6454C88.497 26.6421 88.4612 26.6407 88.445 26.6401C82.9038 26.6415 79.6689 27.0254 77.8384 27.8968C77.0795 28.2581 76.721 28.636 76.4956 29.0352ZM39.0758 69.284C31.6748 69.284 25.6752 74.5648 25.6752 81.0789V92.8738C25.6752 99.3879 31.6748 104.669 39.0758 104.669H47.0325C54.4334 104.669 60.4331 99.3879 60.4331 92.8738V81.0789C60.4331 74.5648 54.4334 69.284 47.0325 69.284H39.0758ZM97.9172 69.284L69.9745 72.0059V80.1716L89.7388 78.1302V104.669H97.9172V69.284Z" />
  <style>
    path {
      fill: #000
    }

    @media (prefers-color-scheme:dark) {
      path {
        fill: #fff
      }
    }
  </style>
</svg>