<svg xmlns="http://www.w3.org/2000/svg" viewBox="0 0 128 128">
  <path fill-rule="evenodd" clip-rule="evenodd"
    d="M53.8306 47.9385H83V54.7495H71.6593V80.9539H64.8198V54.7495H53.8306V47.9385ZM96.352 56.7473C96.1381 57.1251 95.9086 57.8142 95.9086 59.0906C95.9086 60.0953 96.1228 60.457 96.1808 60.5408C96.2237 60.6028 96.3332 60.7433 96.7705 60.8908C97.9255 61.2802 99.7265 61.2419 102.5 61.0961C102.613 61.0902 102.727 61.0841 102.844 61.0778C105.132 60.955 108.232 60.7885 110.76 61.6197C112.228 62.1024 113.718 62.976 114.799 64.5151C115.866 66.0351 116.292 67.8591 116.292 69.8074C116.292 74.5149 113.475 77.4378 110.24 78.9805C107.191 80.4343 103.559 80.8665 100.7 80.8226C100.518 80.8198 100.7 80.8226 100.518 80.8198C100.426 80.8174 100.304 80.8128 100.157 80.8044C99.8623 80.7876 99.4592 80.755 98.9821 80.6913C98.0457 80.5665 96.7368 80.3108 95.3795 79.7679C94.0293 79.2277 92.4734 78.3395 91.2409 76.8603C89.9587 75.3214 89.1885 73.3328 89.1885 70.9426H96.0281C96.0281 71.7896 96.2694 72.2289 96.5045 72.5111C96.7892 72.8528 97.2564 73.1786 97.9291 73.4477C98.5949 73.7141 99.309 73.8631 99.8899 73.9406C100.171 73.9781 100.4 73.9961 100.549 74.0045C100.622 74.0087 100.674 74.0105 100.701 74.0112C100.708 74.0114 100.713 74.0115 100.716 74.0116C103.124 74.01 105.571 73.6555 107.286 72.8374C108.819 72.1064 109.453 71.2245 109.453 69.8074C109.453 68.8247 109.241 68.4859 109.194 68.4188C109.16 68.3707 109.058 68.2329 108.615 68.0873C107.45 67.7041 105.643 67.7515 102.861 67.8977C102.764 67.9028 102.665 67.9081 102.564 67.9135C100.264 68.0363 97.1322 68.2036 94.5771 67.3421C93.1035 66.8452 91.6205 65.9543 90.5487 64.4052C89.4919 62.8779 89.0691 61.0488 89.0691 59.0906C89.0691 57.0421 89.4327 55.1005 90.3939 53.4025C91.3805 51.6597 92.8379 50.4538 94.5315 49.6497C97.6545 48.1669 101.883 47.9385 106.371 47.9385C106.384 47.9398 106.414 47.9387 106.439 47.939C106.468 47.9394 106.503 47.9401 106.545 47.9414C106.629 47.9439 106.737 47.9484 106.867 47.9566C107.126 47.973 107.477 48.0046 107.889 48.0656C108.697 48.1851 109.832 48.4305 111.014 48.9548C112.199 49.4807 113.544 50.3391 114.595 51.7391C115.678 53.1805 116.292 54.9901 116.292 57.1152H109.453C109.453 56.3547 109.254 56.0001 109.118 55.8184C108.95 55.5952 108.67 55.3715 108.229 55.176C107.785 54.9789 107.295 54.8636 106.884 54.8027C106.687 54.7736 106.529 54.76 106.433 54.7539C106.389 54.7511 106.359 54.75 106.345 54.7495C101.711 54.7507 99.0058 55.0709 97.475 55.7977C96.8403 56.0991 96.5405 56.4142 96.352 56.7473ZM106.34 54.7493C106.336 54.7493 106.336 54.7493 106.342 54.7494L106.34 54.7493Z"
    class="neutral" />
  <path fill-rule="evenodd" clip-rule="evenodd"
    d="M71.924 99.3491H65.1833C63.692 99.3491 62.4941 99.8719 61.7374 100.526C60.9939 101.169 60.7591 101.834 60.7591 102.369V112.185C60.7591 112.719 60.9939 113.385 61.7374 114.028C62.4941 114.682 63.692 115.205 65.1833 115.205H71.924C73.4153 115.205 74.6132 114.682 75.3699 114.028C76.1134 113.385 76.3482 112.719 76.3482 112.185V102.369C76.3482 101.834 76.1134 101.169 75.3699 100.526C74.6132 99.8719 73.4153 99.3491 71.924 99.3491ZM65.1833 92.5539C58.9134 92.5539 53.8306 96.9484 53.8306 102.369V112.185C53.8306 117.606 58.9134 122 65.1833 122H71.924C78.1939 122 83.2767 117.606 83.2767 112.185V102.369C83.2767 96.9484 78.1939 92.5539 71.924 92.5539H65.1833Z"
    class="neutral" />
  <path fill-rule="evenodd" clip-rule="evenodd"
    d="M91.3075 94.8189L114.507 92.5539V122H107.717V99.9154L91.3075 101.614V94.8189Z" class="neutral" />
  <path fill-rule="evenodd" clip-rule="evenodd"
    d="M71.9242 12.7953H65.1835C63.6922 12.7953 62.4943 13.318 61.7376 13.9723C60.9941 14.6151 60.7593 15.2806 60.7593 15.8154V25.6308C60.7593 26.1656 60.9941 26.8311 61.7376 27.4739C62.4943 28.1281 63.6922 28.6509 65.1835 28.6509H71.9242C73.4155 28.6509 74.6134 28.1281 75.3701 27.4739C76.1136 26.8311 76.3484 26.1656 76.3484 25.6308V15.8154C76.3484 15.2806 76.1136 14.6151 75.3701 13.9723C74.6134 13.318 73.4155 12.7953 71.9242 12.7953ZM65.1835 6C58.9136 6 53.8308 10.3945 53.8308 15.8154V25.6308C53.8308 31.0517 58.9136 35.4462 65.1835 35.4462H71.9242C78.1941 35.4462 83.2769 31.0517 83.2769 25.6308V15.8154C83.2769 10.3945 78.1941 6 71.9242 6H65.1835Z"
    class="secondary" />
  <path fill-rule="evenodd" clip-rule="evenodd"
    d="M29.0934 55.626H22.3527C20.8614 55.626 19.6635 56.1488 18.9068 56.803C18.1633 57.4459 17.9285 58.1114 17.9285 58.6462V68.4615C17.9285 68.9963 18.1633 69.6618 18.9068 70.3047C19.6635 70.9589 20.8614 71.4817 22.3527 71.4817H29.0934C30.5847 71.4817 31.7826 70.9589 32.5394 70.3046C33.2829 69.6618 33.5176 68.9963 33.5176 68.4615V58.6462C33.5176 58.1114 33.2829 57.4459 32.5394 56.803C31.7826 56.1488 30.5847 55.626 29.0934 55.626ZM22.3527 48.8308C16.0828 48.8308 11 53.2253 11 58.6462V68.4615C11 73.8824 16.0828 78.2769 22.3527 78.2769H29.0934C35.3634 78.2769 40.4462 73.8824 40.4462 68.4615V58.6462C40.4462 53.2253 35.3634 48.8308 29.0934 48.8308H22.3527Z"
    class="secondary" />
  <path fill-rule="evenodd" clip-rule="evenodd"
    d="M91.3077 8.26509L114.508 6V35.4462H107.717V13.3615L91.3077 15.0604V8.26509Z" class="secondary" />
  <path fill-rule="evenodd" clip-rule="evenodd"
    d="M14.5692 94.8189L37.7692 92.5538V122H30.979V99.9154L14.5692 101.614V94.8189Z" class="secondary" />
  <path fill-rule="evenodd" clip-rule="evenodd"
    d="M14.5692 8.26509L37.7692 6V35.4462H30.979V13.3615L14.5692 15.0604V8.26509Z" class="secondary" />
  <style>
    path.neutral {
      fill: #000;
    }

    path.secondary {
      fill: #696969;
    }

    @media (prefers-color-scheme:dark) {
      path.neutral {
        fill: #fff;
      }

      path.secondary {
        fill: #A8A8A8;
      }
    }
  </style>
</svg>