<svg width="883" height="214" viewBox="0 0 883 214" fill="none" xmlns="http://www.w3.org/2000/svg">
  <path
    d="M265.432 72.608V85.76H247.576V140H231.16V85.76H213.304V72.608H265.432ZM328.391 86.432L294.791 165.44H277.127L289.415 138.176L267.623 86.432H285.959L298.343 119.936L310.631 86.432H328.391ZM350.743 94.016C352.343 91.52 354.551 89.504 357.367 87.968C360.183 86.432 363.479 85.664 367.255 85.664C371.671 85.664 375.671 86.784 379.255 89.024C382.839 91.264 385.655 94.464 387.703 98.624C389.815 102.784 390.871 107.616 390.871 113.12C390.871 118.624 389.815 123.488 387.703 127.712C385.655 131.872 382.839 135.104 379.255 137.408C375.671 139.648 371.671 140.768 367.255 140.768C363.543 140.768 360.247 140 357.367 138.464C354.551 136.928 352.343 134.944 350.743 132.512V165.536H334.327V86.432H350.743V94.016ZM374.167 113.12C374.167 109.024 373.015 105.824 370.711 103.52C368.471 101.152 365.687 99.968 362.359 99.968C359.095 99.968 356.311 101.152 354.007 103.52C351.767 105.888 350.647 109.12 350.647 113.216C350.647 117.312 351.767 120.544 354.007 122.912C356.311 125.28 359.095 126.464 362.359 126.464C365.623 126.464 368.407 125.28 370.711 122.912C373.015 120.48 374.167 117.216 374.167 113.12ZM449.979 112.352C449.979 113.888 449.883 115.488 449.691 117.152H412.539C412.795 120.48 413.851 123.04 415.707 124.832C417.627 126.56 419.963 127.424 422.715 127.424C426.811 127.424 429.659 125.696 431.259 122.24H448.731C447.835 125.76 446.203 128.928 443.835 131.744C441.531 134.56 438.619 136.768 435.099 138.368C431.579 139.968 427.643 140.768 423.291 140.768C418.043 140.768 413.371 139.648 409.275 137.408C405.179 135.168 401.979 131.968 399.675 127.808C397.371 123.648 396.219 118.784 396.219 113.216C396.219 107.648 397.339 102.784 399.579 98.624C401.883 94.464 405.083 91.264 409.179 89.024C413.275 86.784 417.979 85.664 423.291 85.664C428.475 85.664 433.083 86.752 437.115 88.928C441.147 91.104 444.283 94.208 446.523 98.24C448.827 102.272 449.979 106.976 449.979 112.352ZM433.179 108.032C433.179 105.216 432.219 102.976 430.299 101.312C428.379 99.648 425.979 98.816 423.099 98.816C420.347 98.816 418.011 99.616 416.091 101.216C414.235 102.816 413.083 105.088 412.635 108.032H433.179ZM455.376 113.12C455.376 107.616 456.4 102.784 458.448 98.624C460.56 94.464 463.408 91.264 466.992 89.024C470.576 86.784 474.576 85.664 478.992 85.664C482.512 85.664 485.712 86.4 488.592 87.872C491.536 89.344 493.84 91.328 495.504 93.824V68.96H511.92V140H495.504V132.32C493.968 134.88 491.76 136.928 488.88 138.464C486.064 140 482.768 140.768 478.992 140.768C474.576 140.768 470.576 139.648 466.992 137.408C463.408 135.104 460.56 131.872 458.448 127.712C456.4 123.488 455.376 118.624 455.376 113.12ZM495.504 113.216C495.504 109.12 494.352 105.888 492.048 103.52C489.808 101.152 487.056 99.968 483.792 99.968C480.528 99.968 477.744 101.152 475.44 103.52C473.2 105.824 472.08 109.024 472.08 113.12C472.08 117.216 473.2 120.48 475.44 122.912C477.744 125.28 480.528 126.464 483.792 126.464C487.056 126.464 489.808 125.28 492.048 122.912C494.352 120.544 495.504 117.312 495.504 113.216ZM584.94 105.44C588.844 106.272 591.98 108.224 594.348 111.296C596.716 114.304 597.9 117.76 597.9 121.664C597.9 127.296 595.916 131.776 591.948 135.104C588.044 138.368 582.572 140 575.532 140H544.14V72.608H574.476C581.324 72.608 586.668 74.176 590.508 77.312C594.412 80.448 596.364 84.704 596.364 90.08C596.364 94.048 595.308 97.344 593.196 99.968C591.148 102.592 588.396 104.416 584.94 105.44ZM560.556 99.872H571.308C573.996 99.872 576.044 99.296 577.452 98.144C578.924 96.928 579.66 95.168 579.66 92.864C579.66 90.56 578.924 88.8 577.452 87.584C576.044 86.368 573.996 85.76 571.308 85.76H560.556V99.872ZM572.652 126.752C575.404 126.752 577.516 126.144 578.988 124.928C580.524 123.648 581.292 121.824 581.292 119.456C581.292 117.088 580.492 115.232 578.892 113.888C577.356 112.544 575.212 111.872 572.46 111.872H560.556V126.752H572.652ZM615.677 80.864C612.797 80.864 610.429 80.032 608.573 78.368C606.781 76.64 605.885 74.528 605.885 72.032C605.885 69.472 606.781 67.36 608.573 65.696C610.429 63.968 612.797 63.104 615.677 63.104C618.493 63.104 620.797 63.968 622.589 65.696C624.445 67.36 625.373 69.472 625.373 72.032C625.373 74.528 624.445 76.64 622.589 78.368C620.797 80.032 618.493 80.864 615.677 80.864ZM623.837 86.432V140H607.421V86.432H623.837ZM668.373 85.856C674.645 85.856 679.637 87.904 683.349 92C687.125 96.032 689.013 101.6 689.013 108.704V140H672.693V110.912C672.693 107.328 671.765 104.544 669.909 102.56C668.053 100.576 665.557 99.584 662.421 99.584C659.285 99.584 656.789 100.576 654.933 102.56C653.077 104.544 652.149 107.328 652.149 110.912V140H635.733V86.432H652.149V93.536C653.813 91.168 656.053 89.312 658.869 87.968C661.685 86.56 664.853 85.856 668.373 85.856ZM697.157 113.12C697.157 107.616 698.181 102.784 700.229 98.624C702.341 94.464 705.189 91.264 708.773 89.024C712.357 86.784 716.357 85.664 720.773 85.664C724.549 85.664 727.845 86.432 730.661 87.968C733.541 89.504 735.749 91.52 737.285 94.016V86.432H753.701V140H737.285V132.416C735.685 134.912 733.445 136.928 730.565 138.464C727.749 140 724.453 140.768 720.677 140.768C716.325 140.768 712.357 139.648 708.773 137.408C705.189 135.104 702.341 131.872 700.229 127.712C698.181 123.488 697.157 118.624 697.157 113.12ZM737.285 113.216C737.285 109.12 736.133 105.888 733.829 103.52C731.589 101.152 728.837 99.968 725.573 99.968C722.309 99.968 719.525 101.152 717.221 103.52C714.981 105.824 713.861 109.024 713.861 113.12C713.861 117.216 714.981 120.48 717.221 122.912C719.525 125.28 722.309 126.464 725.573 126.464C728.837 126.464 731.589 125.28 733.829 122.912C736.133 120.544 737.285 117.312 737.285 113.216ZM781.993 95.36C783.913 92.416 786.313 90.112 789.193 88.448C792.073 86.72 795.273 85.856 798.793 85.856V103.232H794.281C790.185 103.232 787.113 104.128 785.065 105.92C783.017 107.648 781.993 110.72 781.993 115.136V140H765.577V86.432H781.993V95.36ZM861.36 86.432L827.76 165.44H810.096L822.384 138.176L800.591 86.432H818.928L831.312 119.936L843.6 86.432H861.36Z"
    fill="white" />
  <path fill-rule="evenodd" clip-rule="evenodd"
    d="M84 86H116.69V93.6331H103.981V123H96.3155V93.6331H84V86ZM131.653 95.8719C131.414 96.2954 131.156 97.0677 131.156 98.498C131.156 99.624 131.396 100.029 131.461 100.123C131.51 100.193 131.632 100.35 132.122 100.516C133.417 100.952 135.435 100.909 138.544 100.746C138.67 100.739 138.798 100.732 138.929 100.725C141.493 100.587 144.967 100.401 147.8 101.332C149.445 101.873 151.115 102.852 152.326 104.577C153.523 106.281 154 108.325 154 110.508C154 115.784 150.843 119.06 147.218 120.788C143.801 122.418 139.73 122.902 136.527 122.853C136.322 122.85 136.527 122.853 136.322 122.85C136.219 122.847 136.083 122.842 135.917 122.832C135.587 122.814 135.136 122.777 134.601 122.706C133.551 122.566 132.085 122.279 130.564 121.671C129.05 121.065 127.307 120.07 125.925 118.412C124.488 116.688 123.625 114.459 123.625 111.78H131.29C131.29 112.73 131.561 113.222 131.824 113.538C132.143 113.921 132.667 114.286 133.421 114.588C134.167 114.886 134.967 115.053 135.618 115.14C135.934 115.182 136.19 115.202 136.356 115.212C136.439 115.217 136.497 115.219 136.527 115.219C136.535 115.22 136.54 115.22 136.544 115.22C139.242 115.218 141.985 114.821 143.907 113.904C145.625 113.085 146.335 112.096 146.335 110.508C146.335 109.407 146.098 109.027 146.045 108.952C146.008 108.898 145.893 108.744 145.397 108.581C144.091 108.151 142.066 108.204 138.948 108.368C138.839 108.374 138.728 108.38 138.615 108.386C136.037 108.523 132.528 108.711 129.664 107.745C128.013 107.189 126.351 106.19 125.15 104.454C123.965 102.742 123.491 100.693 123.491 98.498C123.491 96.2023 123.899 94.0265 124.976 92.1235C126.082 90.1703 127.715 88.8189 129.613 87.9177C133.113 86.256 137.852 86 142.881 86C142.896 86.0015 142.93 86.0003 142.957 86.0006C142.99 86.0011 143.03 86.0019 143.077 86.0033C143.171 86.006 143.292 86.0111 143.438 86.0203C143.728 86.0387 144.12 86.0741 144.583 86.1425C145.488 86.2764 146.761 86.5514 148.085 87.139C149.412 87.7284 150.92 88.6903 152.098 90.2593C153.311 91.8747 154 93.9027 154 96.2843H146.335C146.335 95.432 146.113 95.0346 145.96 94.8309C145.772 94.5808 145.458 94.3301 144.964 94.111C144.467 93.8901 143.917 93.7609 143.456 93.6927C143.236 93.66 143.059 93.6449 142.951 93.638C142.901 93.6349 142.868 93.6336 142.853 93.6331C137.659 93.6344 134.627 93.9932 132.912 94.8078C132.201 95.1455 131.865 95.4987 131.653 95.8719ZM142.847 93.6329C142.842 93.6328 142.843 93.6328 142.849 93.633L142.847 93.6329Z"
    fill="white" />
  <path fill-rule="evenodd" clip-rule="evenodd"
    d="M104.277 143.615H96.7229C95.0516 143.615 93.7091 144.201 92.8611 144.934C92.0278 145.655 91.7647 146.401 91.7647 147V158C91.7647 158.599 92.0278 159.345 92.8611 160.066C93.7091 160.799 95.0516 161.385 96.7229 161.385H104.277C105.948 161.385 107.291 160.799 108.139 160.066C108.972 159.345 109.235 158.599 109.235 158V147C109.235 146.401 108.972 145.655 108.139 144.934C107.291 144.201 105.948 143.615 104.277 143.615ZM96.7229 136C89.6962 136 84 140.925 84 147V158C84 164.075 89.6962 169 96.7229 169H104.277C111.304 169 117 164.075 117 158V147C117 140.925 111.304 136 104.277 136H96.7229Z"
    fill="white" />
  <path fill-rule="evenodd" clip-rule="evenodd" d="M126 138.538L152 136V169H144.39V144.25L126 146.154V138.538Z"
    fill="white" />
  <path fill-rule="evenodd" clip-rule="evenodd"
    d="M104.277 46.6154H96.7229C95.0516 46.6154 93.7091 47.2012 92.8611 47.9344C92.0278 48.6548 91.7647 49.4007 91.7647 50V61C91.7647 61.5993 92.0278 62.3452 92.8611 63.0656C93.7091 63.7988 95.0516 64.3846 96.7229 64.3846H104.277C105.948 64.3846 107.291 63.7988 108.139 63.0656C108.972 62.3452 109.235 61.5993 109.235 61V50C109.235 49.4007 108.972 48.6548 108.139 47.9344C107.291 47.2012 105.948 46.6154 104.277 46.6154ZM96.7229 39C89.6962 39 84 43.9249 84 50V61C84 67.0751 89.6962 72 96.7229 72H104.277C111.304 72 117 67.0751 117 61V50C117 43.9249 111.304 39 104.277 39H96.7229Z"
    fill="white" fill-opacity="0.5" />
  <path fill-rule="evenodd" clip-rule="evenodd"
    d="M56.2771 94.6154H48.7229C47.0516 94.6154 45.7091 95.2012 44.8611 95.9344C44.0278 96.6548 43.7647 97.4007 43.7647 98V109C43.7647 109.599 44.0278 110.345 44.8611 111.066C45.7091 111.799 47.0516 112.385 48.7229 112.385H56.2771C57.9484 112.385 59.2909 111.799 60.1389 111.066C60.9722 110.345 61.2353 109.599 61.2353 109V98C61.2353 97.4007 60.9722 96.6548 60.1389 95.9344C59.2909 95.2012 57.9484 94.6154 56.2771 94.6154ZM48.7229 87C41.6962 87 36 91.9249 36 98V109C36 115.075 41.6962 120 48.7229 120H56.2771C63.3038 120 69 115.075 69 109V98C69 91.9249 63.3038 87 56.2771 87H48.7229Z"
    fill="white" fill-opacity="0.5" />
  <path fill-rule="evenodd" clip-rule="evenodd" d="M126 41.5385L152 39V72H144.39V47.25L126 49.1538V41.5385Z"
    fill="white" fill-opacity="0.5" />
  <path fill-rule="evenodd" clip-rule="evenodd" d="M40 138.538L66 136V169H58.3902V144.25L40 146.154V138.538Z"
    fill="white" fill-opacity="0.5" />
  <path fill-rule="evenodd" clip-rule="evenodd" d="M40 41.5385L66 39V72H58.3902V47.25L40 49.1538V41.5385Z" fill="white"
    fill-opacity="0.5" />
</svg>